<?xml version="1.0" encoding="UTF-8"?>
<svg xmlns="http://www.w3.org/2000/svg" xmlns:xlink="http://www.w3.org/1999/xlink" width="48px" height="48px" viewBox="0 0 48 48" version="1.1">
<defs>
<clipPath id="clip1">
  <path d="M 4.6875 15 L 26 15 L 26 34 L 4.6875 34 Z M 4.6875 15 "/>
</clipPath>
<clipPath id="clip2">
  <path d="M 22 25 L 43.21875 25 L 43.21875 43.410156 L 22 43.410156 Z M 22 25 "/>
</clipPath>
<clipPath id="clip3">
  <path d="M 22 4.785156 L 43.21875 4.785156 L 43.21875 23 L 22 23 Z M 22 4.785156 "/>
</clipPath>
</defs>
<g id="surface1">
<g clip-path="url(#clip1)" clip-rule="nonzero">
<path style=" stroke:none;fill-rule:nonzero;fill:rgb(31.372549%,62.745098%,37.647059%);fill-opacity:1;" d="M 25.203125 23.65625 L 20.417969 15.375 C 20.285156 15.144531 20.039062 15.003906 19.773438 15.003906 L 10.214844 15.003906 C 9.949219 15.003906 9.699219 15.144531 9.566406 15.375 L 4.789062 23.65625 C 4.652344 23.886719 4.652344 24.171875 4.789062 24.402344 L 9.566406 32.683594 C 9.699219 32.914062 9.945312 33.054688 10.214844 33.054688 L 19.773438 33.054688 C 20.039062 33.054688 20.285156 32.914062 20.417969 32.683594 L 25.199219 24.402344 C 25.335938 24.171875 25.335938 23.886719 25.203125 23.65625 Z M 25.203125 23.65625 "/>
</g>
<g clip-path="url(#clip2)" clip-rule="nonzero">
<path style=" stroke:none;fill-rule:nonzero;fill:rgb(31.372549%,62.745098%,37.647059%);fill-opacity:1;" d="M 38.335938 25.828125 C 38.203125 25.597656 37.957031 25.457031 37.691406 25.457031 L 28.128906 25.457031 C 27.863281 25.457031 27.617188 25.597656 27.484375 25.828125 L 22.703125 34.109375 C 22.570312 34.339844 22.570312 34.625 22.703125 34.855469 L 27.484375 43.136719 C 27.617188 43.367188 27.863281 43.507812 28.128906 43.507812 L 37.691406 43.507812 C 37.957031 43.507812 38.203125 43.367188 38.335938 43.136719 L 43.117188 34.855469 C 43.25 34.625 43.25 34.339844 43.117188 34.109375 Z M 38.335938 25.828125 "/>
</g>
<g clip-path="url(#clip3)" clip-rule="nonzero">
<path style=" stroke:none;fill-rule:nonzero;fill:rgb(31.372549%,62.745098%,37.647059%);fill-opacity:1;" d="M 27.484375 22.367188 C 27.617188 22.597656 27.863281 22.742188 28.128906 22.742188 L 37.691406 22.742188 C 37.957031 22.742188 38.203125 22.597656 38.335938 22.367188 L 43.117188 14.085938 C 43.25 13.855469 43.25 13.570312 43.117188 13.339844 L 38.335938 5.0625 C 38.203125 4.828125 37.957031 4.6875 37.691406 4.6875 L 28.128906 4.6875 C 27.863281 4.6875 27.617188 4.828125 27.484375 5.0625 L 22.703125 13.339844 C 22.570312 13.570312 22.570312 13.855469 22.703125 14.085938 Z M 27.484375 22.367188 "/>
</g>
</g>
</svg>
