<?xml version="1.0" encoding="UTF-8"?>
<svg xmlns="http://www.w3.org/2000/svg" xmlns:xlink="http://www.w3.org/1999/xlink" width="16px" height="16px" viewBox="0 0 16 16" version="1.1">
<defs>
<clipPath id="clip1">
  <path d="M 1.5625 5 L 9 5 L 9 12 L 1.5625 12 Z M 1.5625 5 "/>
</clipPath>
<clipPath id="clip2">
  <path d="M 7 8 L 14.40625 8 L 14.40625 14.46875 L 7 14.46875 Z M 7 8 "/>
</clipPath>
<clipPath id="clip3">
  <path d="M 7 1.59375 L 14.40625 1.59375 L 14.40625 8 L 7 8 Z M 7 1.59375 "/>
</clipPath>
</defs>
<g id="surface1">
<g clip-path="url(#clip1)" clip-rule="nonzero">
<path style=" stroke:none;fill-rule:nonzero;fill:rgb(31.372549%,62.745098%,37.647059%);fill-opacity:1;" d="M 8.402344 7.886719 L 6.804688 5.125 C 6.761719 5.046875 6.679688 5 6.589844 5 L 3.40625 5 C 3.316406 5 3.234375 5.046875 3.1875 5.125 L 1.597656 7.886719 C 1.550781 7.960938 1.550781 8.058594 1.597656 8.132812 L 3.1875 10.894531 C 3.234375 10.972656 3.316406 11.019531 3.40625 11.019531 L 6.589844 11.019531 C 6.679688 11.019531 6.761719 10.972656 6.804688 10.894531 L 8.398438 8.132812 C 8.445312 8.058594 8.445312 7.960938 8.402344 7.886719 Z M 8.402344 7.886719 "/>
</g>
<g clip-path="url(#clip2)" clip-rule="nonzero">
<path style=" stroke:none;fill-rule:nonzero;fill:rgb(31.372549%,62.745098%,37.647059%);fill-opacity:1;" d="M 12.777344 8.609375 C 12.734375 8.53125 12.652344 8.484375 12.5625 8.484375 L 9.375 8.484375 C 9.289062 8.484375 9.207031 8.53125 9.160156 8.609375 L 7.566406 11.371094 C 7.523438 11.445312 7.523438 11.542969 7.566406 11.617188 L 9.160156 14.378906 C 9.207031 14.457031 9.289062 14.503906 9.375 14.503906 L 12.5625 14.503906 C 12.652344 14.503906 12.734375 14.457031 12.777344 14.378906 L 14.371094 11.617188 C 14.417969 11.542969 14.417969 11.445312 14.371094 11.371094 Z M 12.777344 8.609375 "/>
</g>
<g clip-path="url(#clip3)" clip-rule="nonzero">
<path style=" stroke:none;fill-rule:nonzero;fill:rgb(31.372549%,62.745098%,37.647059%);fill-opacity:1;" d="M 9.160156 7.457031 C 9.207031 7.53125 9.289062 7.582031 9.375 7.582031 L 12.5625 7.582031 C 12.652344 7.582031 12.734375 7.53125 12.777344 7.457031 L 14.371094 4.695312 C 14.417969 4.617188 14.417969 4.523438 14.371094 4.445312 L 12.777344 1.6875 C 12.734375 1.609375 12.652344 1.5625 12.5625 1.5625 L 9.375 1.5625 C 9.289062 1.5625 9.207031 1.609375 9.160156 1.6875 L 7.566406 4.445312 C 7.523438 4.523438 7.523438 4.617188 7.566406 4.695312 Z M 9.160156 7.457031 "/>
</g>
</g>
</svg>
