<svg xmlns="http://www.w3.org/2000/svg" version="1.1" xmlns:xlink="http://www.w3.org/1999/xlink" xmlns:svgjs="http://svgjs.dev/svgjs" width="128" height="128" viewBox="0 0 128 128"><g transform="matrix(0.8046875,0,0,0.8046875,12.37428893524799,12.760752631578946)"><svg viewBox="0 0 95 95" data-background-color="#ffffff" preserveAspectRatio="xMidYMid meet" height="128" width="128" xmlns="http://www.w3.org/2000/svg" xmlns:xlink="http://www.w3.org/1999/xlink"><g id="tight-bounds" transform="matrix(1,0,0,1,0.11594709855768315,-0.24049999999999727)"><svg viewBox="0 0 94.76810580288462 95.481" height="95.481" width="94.76810580288462"><g><svg viewBox="0 0 94.76810580288462 95.481" height="95.481" width="94.76810580288462"><g><svg viewBox="0 0 94.76810580288462 95.481" height="95.481" width="94.76810580288462"><g id="textblocktransform"><svg viewBox="0 0 94.76810580288462 95.481" height="95.481" width="94.76810580288462" id="textblock"><g><svg viewBox="0 0 94.76810580288462 95.481" height="95.481" width="94.76810580288462"><g><svg viewBox="0 0 94.76810580288462 95.481" height="95.481" width="94.76810580288462"><g><svg xmlns:x="http://ns.adobe.com/Extensibility/1.0/" xmlns:i="http://ns.adobe.com/AdobeIllustrator/10.0/" xmlns:graph="http://ns.adobe.com/Graphs/1.0/" xmlns="http://www.w3.org/2000/svg" xmlns:xlink="http://www.w3.org/1999/xlink" version="1.1" x="0" y="0" viewBox="6.1945000000000014 6 51.61175 52" enable-background="new 0 0 64 64" xml:space="preserve" height="95.481" width="94.76810580288462" class="icon-icon-0" data-fill-palette-color="accent" id="icon-0"><g fill="#50a060" data-fill-palette-color="accent"><g fill="#50a060" data-fill-palette-color="accent"><path d="M33.673 31.408l-6.405-11.09c-0.178-0.31-0.508-0.5-0.866-0.5H13.597c-0.357 0-0.688 0.19-0.866 0.5l-6.403 11.09c-0.178 0.31-0.178 0.69 0 1L12.73 43.5c0.179 0.31 0.509 0.5 0.866 0.5h12.806c0.357 0 0.688-0.19 0.866-0.5l6.404-11.092C33.852 32.099 33.852 31.718 33.673 31.408z" fill="#50a060" data-fill-palette-color="accent"></path><path d="M51.269 34.319c-0.179-0.31-0.509-0.5-0.866-0.5H37.596c-0.357 0-0.688 0.19-0.866 0.5l-6.402 11.09c-0.178 0.31-0.178 0.69 0 1L36.729 57.5c0.179 0.31 0.509 0.5 0.866 0.5h12.807c0.357 0 0.688-0.19 0.866-0.5l6.404-11.091c0.179-0.31 0.179-0.69 0-1L51.269 34.319z" fill="#50a060" data-fill-palette-color="accent"></path><path d="M36.729 29.682c0.179 0.31 0.509 0.5 0.866 0.5h12.807c0.357 0 0.688-0.19 0.866-0.5l6.404-11.092c0.179-0.31 0.179-0.69 0-1L51.269 6.5C51.09 6.19 50.76 6 50.402 6H37.596c-0.357 0-0.688 0.19-0.866 0.5l-6.402 11.09c-0.178 0.31-0.178 0.69 0 1L36.729 29.682z" fill="#50a060" data-fill-palette-color="accent"></path></g></g></svg><g></g></g></svg></g></svg></g></svg></g></svg></g><g></g></svg></g><defs></defs></svg><rect width="94.76810580288462" height="95.481" fill="none" stroke="none" visibility="hidden"></rect></g></svg></g></svg>