<svg xmlns="http://www.w3.org/2000/svg" version="1.1" xmlns:xlink="http://www.w3.org/1999/xlink" xmlns:svgjs="http://svgjs.dev/svgjs" width="2000" height="1500" viewBox="0 0 2000 1500"><rect width="2000" height="1500" fill="#ffffff"></rect><g transform="matrix(0.75,0,0,0.75,249.090909090909,473.52443962499945)"><svg viewBox="0 0 396 146" data-background-color="#ffffff" preserveAspectRatio="xMidYMid meet" height="737" width="2000" xmlns="http://www.w3.org/2000/svg" xmlns:xlink="http://www.w3.org/1999/xlink"><g id="tight-bounds" transform="matrix(1,0,0,1,0.2400000000000091,0.026561401628356407)"><svg viewBox="0 0 395.52 145.9468771967433" height="145.9468771967433" width="395.52"><g><svg viewBox="0 0 397.4975999999999 146.676611582727" height="145.9468771967433" width="395.52"><g><rect width="397.4975999999999" height="4.4925108875365405" x="0" y="80.60701774694233" fill="#c9efc7" opacity="1" stroke-width="0" stroke="transparent" fill-opacity="1" class="rect-qz-0" data-fill-palette-color="secondary" rx="1%" id="qz-0" data-palette-color="#c9efc7"></rect></g><g transform="matrix(1,0,0,1,0.9887999999999693,96.8600283400719)"><svg viewBox="0 0 395.52 49.816583242655064" height="49.816583242655064" width="395.52"><g id="textblocktransform"><svg viewBox="0 0 395.52 49.816583242655064" height="49.816583242655064" width="395.52" id="textblock"><g><svg viewBox="0 0 395.52 49.816583242655064" height="49.816583242655064" width="395.52"><g transform="matrix(1,0,0,1,0,0)"><svg width="395.52" viewBox="4 -36.3 367.56 46.3" height="49.816583242655064" data-palette-color="#50a060"><path d="M8.4 0L5 0 5-23.4 8.4-23.4 8.4 0ZM6.7-27.95Q5.55-27.95 4.78-28.75 4-29.55 4-30.7L4-30.7Q4-31.8 4.78-32.58 5.55-33.35 6.7-33.35L6.7-33.35Q7.8-33.35 8.6-32.58 9.4-31.8 9.4-30.65L9.4-30.65Q9.4-29.55 8.6-28.75 7.8-27.95 6.7-27.95L6.7-27.95ZM27.7-24.2Q30.15-24.2 32.22-23.2 34.3-22.2 35.52-20.25 36.75-18.3 36.75-15.65L36.75-15.65 36.75 0 33.35 0 33.35-14.15Q33.35-21.1 27.15-21.1L27.15-21.1Q23.55-21.1 21.75-18.55 19.95-16 19.95-11.7L19.95-11.7 19.95 0 16.55 0 16.55-23.4 19.95-23.4 19.95-19.5Q21.15-21.75 23.12-22.98 25.1-24.2 27.7-24.2L27.7-24.2ZM61.75-23.4L65.15-23.4 65.15-0.9Q65.15 2.25 63.85 4.73 62.55 7.2 60.2 8.6 57.85 10 54.85 10L54.85 10 45.15 10 45.15 6.9 54.85 6.9Q57.9 6.9 59.82 4.7 61.75 2.5 61.75-0.9L61.75-0.9 61.75-3.45Q60.3-1.45 58.2-0.33 56.1 0.8 53.6 0.8L53.6 0.8Q50.25 0.8 47.6-0.8 44.95-2.4 43.45-5.25 41.95-8.1 41.95-11.75L41.95-11.75Q41.95-15.35 43.42-18.18 44.9-21 47.52-22.6 50.15-24.2 53.5-24.2L53.5-24.2Q56.05-24.2 58.17-23.08 60.3-21.95 61.75-19.9L61.75-19.9 61.75-23.4ZM53.5-2.3Q55.9-2.3 57.77-3.5 59.65-4.7 60.7-6.85 61.75-9 61.75-11.7L61.75-11.7Q61.75-14.4 60.7-16.55 59.65-18.7 57.77-19.9 55.9-21.1 53.5-21.1L53.5-21.1Q51.15-21.1 49.3-19.9 47.45-18.7 46.4-16.57 45.35-14.45 45.35-11.75L45.35-11.75Q45.35-9 46.4-6.85 47.45-4.7 49.3-3.5 51.15-2.3 53.5-2.3L53.5-2.3ZM82.94-24.2Q84.14-24.2 85.24-23.85L85.24-23.85 85.24-20.75Q84.19-21.25 82.94-21.25L82.94-21.25Q80.79-21.25 78.94-20.05 77.09-18.85 75.97-16.57 74.84-14.3 74.84-11.2L74.84-11.2 74.84 0 71.44 0 71.44-23.4 74.84-23.4 74.84-18.7Q76.19-21.3 78.27-22.75 80.34-24.2 82.94-24.2L82.94-24.2ZM97.99-24.2Q101.14-24.2 103.69-22.65 106.24-21.1 107.69-18.43 109.14-15.75 109.14-12.45L109.14-12.45Q109.14-11.5 109.09-11L109.09-11 89.84-11Q90.04-7.4 92.19-4.85 94.34-2.3 98.04-2.3L98.04-2.3Q101.04-2.3 103.02-3.43 104.99-4.55 106.19-6.55L106.19-6.55 108.89-4.75Q107.24-2.15 104.54-0.68 101.84 0.8 98.14 0.8L98.14 0.8Q94.74 0.8 92.09-0.8 89.44-2.4 87.94-5.25 86.44-8.1 86.44-11.7L86.44-11.7Q86.44-15.3 87.92-18.15 89.39-21 92.02-22.6 94.64-24.2 97.99-24.2L97.99-24.2ZM90.04-13.8L105.74-13.8Q105.24-17.45 103.29-19.28 101.34-21.1 97.99-21.1L97.99-21.1Q94.74-21.1 92.67-19.03 90.59-16.95 90.04-13.8L90.04-13.8ZM132.49-36.3L135.89-36.3 135.89 0 132.49 0 132.49-3.45Q131.04-1.45 128.94-0.33 126.84 0.8 124.34 0.8L124.34 0.8Q120.99 0.8 118.34-0.8 115.69-2.4 114.19-5.25 112.69-8.1 112.69-11.75L112.69-11.75Q112.69-15.35 114.16-18.18 115.64-21 118.26-22.6 120.89-24.2 124.24-24.2L124.24-24.2Q126.79-24.2 128.91-23.08 131.04-21.95 132.49-19.9L132.49-19.9 132.49-36.3ZM124.24-2.3Q126.64-2.3 128.51-3.5 130.39-4.7 131.44-6.85 132.49-9 132.49-11.7L132.49-11.7Q132.49-14.4 131.44-16.55 130.39-18.7 128.51-19.9 126.64-21.1 124.24-21.1L124.24-21.1Q121.89-21.1 120.04-19.9 118.19-18.7 117.14-16.57 116.09-14.45 116.09-11.75L116.09-11.75Q116.09-9 117.14-6.85 118.19-4.7 120.04-3.5 121.89-2.3 124.24-2.3L124.24-2.3ZM147.44 0L144.04 0 144.04-23.4 147.44-23.4 147.44 0ZM145.74-27.95Q144.59-27.95 143.81-28.75 143.04-29.55 143.04-30.7L143.04-30.7Q143.04-31.8 143.81-32.58 144.59-33.35 145.74-33.35L145.74-33.35Q146.84-33.35 147.64-32.58 148.44-31.8 148.44-30.65L148.44-30.65Q148.44-29.55 147.64-28.75 146.84-27.95 145.74-27.95L145.74-27.95ZM165.68-24.2Q168.83-24.2 171.38-22.65 173.93-21.1 175.38-18.43 176.83-15.75 176.83-12.45L176.83-12.45Q176.83-11.5 176.78-11L176.78-11 157.53-11Q157.73-7.4 159.88-4.85 162.03-2.3 165.73-2.3L165.73-2.3Q168.73-2.3 170.71-3.43 172.68-4.55 173.88-6.55L173.88-6.55 176.58-4.75Q174.93-2.15 172.23-0.68 169.53 0.8 165.83 0.8L165.83 0.8Q162.43 0.8 159.78-0.8 157.13-2.4 155.63-5.25 154.13-8.1 154.13-11.7L154.13-11.7Q154.13-15.3 155.61-18.15 157.08-21 159.71-22.6 162.33-24.2 165.68-24.2L165.68-24.2ZM157.73-13.8L173.43-13.8Q172.93-17.45 170.98-19.28 169.03-21.1 165.68-21.1L165.68-21.1Q162.43-21.1 160.36-19.03 158.28-16.95 157.73-13.8L157.73-13.8ZM192.98-24.2Q195.43-24.2 197.51-23.2 199.58-22.2 200.81-20.25 202.03-18.3 202.03-15.65L202.03-15.65 202.03 0 198.63 0 198.63-14.15Q198.63-21.1 192.43-21.1L192.43-21.1Q188.83-21.1 187.03-18.55 185.23-16 185.23-11.7L185.23-11.7 185.23 0 181.83 0 181.83-23.4 185.23-23.4 185.23-19.5Q186.43-21.75 188.41-22.98 190.38-24.2 192.98-24.2L192.98-24.2ZM213.33 0L209.93 0 209.93-20.3 205.93-20.3 205.93-23.4 209.93-23.4 209.93-31.15 213.33-31.15 213.33-23.4 218.73-23.4 218.73-20.3 213.33-20.3 213.33 0ZM241.82 0.8Q238.42 0.8 235.85-0.65 233.27-2.1 231.92-4.75L231.92-4.75 234.97-6.25Q236.82-2.3 242.22-2.3L242.22-2.3Q244.82-2.3 246.52-3.25 248.22-4.2 248.22-6.2L248.22-6.2Q248.22-8.25 246.85-9.25 245.47-10.25 242.02-10.55L242.02-10.55Q237.22-10.95 235.15-12.7 233.07-14.45 233.07-17.35L233.07-17.35Q233.07-20.6 235.42-22.4 237.77-24.2 241.87-24.2L241.87-24.2Q248.82-24.2 251.32-18.7L251.32-18.7 248.27-17.2Q247.42-19.2 245.8-20.15 244.17-21.1 241.62-21.1L241.62-21.1Q239.02-21.1 237.65-20.15 236.27-19.2 236.27-17.45L236.27-17.45Q236.27-15.8 237.75-14.78 239.22-13.75 242.82-13.45L242.82-13.45Q247.27-13.05 249.45-11.28 251.62-9.5 251.62-6.6L251.62-6.6Q251.62-4.25 250.27-2.58 248.92-0.9 246.67-0.05 244.42 0.8 241.82 0.8L241.82 0.8ZM266.87-24.2Q270.02-24.2 272.57-22.65 275.12-21.1 276.57-18.43 278.02-15.75 278.02-12.45L278.02-12.45Q278.02-11.5 277.97-11L277.97-11 258.72-11Q258.92-7.4 261.07-4.85 263.22-2.3 266.92-2.3L266.92-2.3Q269.92-2.3 271.9-3.43 273.87-4.55 275.07-6.55L275.07-6.55 277.77-4.75Q276.12-2.15 273.42-0.68 270.72 0.8 267.02 0.8L267.02 0.8Q263.62 0.8 260.97-0.8 258.32-2.4 256.82-5.25 255.32-8.1 255.32-11.7L255.32-11.7Q255.32-15.3 256.8-18.15 258.27-21 260.9-22.6 263.52-24.2 266.87-24.2L266.87-24.2ZM258.92-13.8L274.62-13.8Q274.12-17.45 272.17-19.28 270.22-21.1 266.87-21.1L266.87-21.1Q263.62-21.1 261.55-19.03 259.47-16.95 258.92-13.8L258.92-13.8ZM301.37-23.4L304.77-23.4 304.77 0 301.37 0 301.37-3.45Q299.92-1.45 297.82-0.33 295.72 0.8 293.22 0.8L293.22 0.8Q289.87 0.8 287.22-0.8 284.57-2.4 283.07-5.25 281.57-8.1 281.57-11.75L281.57-11.75Q281.57-15.35 283.04-18.18 284.52-21 287.14-22.6 289.77-24.2 293.12-24.2L293.12-24.2Q295.67-24.2 297.79-23.08 299.92-21.95 301.37-19.9L301.37-19.9 301.37-23.4ZM293.12-2.3Q295.52-2.3 297.39-3.5 299.27-4.7 300.32-6.85 301.37-9 301.37-11.7L301.37-11.7Q301.37-14.4 300.32-16.55 299.27-18.7 297.39-19.9 295.52-21.1 293.12-21.1L293.12-21.1Q290.77-21.1 288.92-19.9 287.07-18.7 286.02-16.57 284.97-14.45 284.97-11.75L284.97-11.75Q284.97-9 286.02-6.85 287.07-4.7 288.92-3.5 290.77-2.3 293.12-2.3L293.12-2.3ZM322.57-24.2Q323.77-24.2 324.87-23.85L324.87-23.85 324.87-20.75Q323.82-21.25 322.57-21.25L322.57-21.25Q320.42-21.25 318.57-20.05 316.72-18.85 315.59-16.57 314.47-14.3 314.47-11.2L314.47-11.2 314.47 0 311.07 0 311.07-23.4 314.47-23.4 314.47-18.7Q315.82-21.3 317.89-22.75 319.97-24.2 322.57-24.2L322.57-24.2ZM337.66 0.8Q334.26 0.8 331.61-0.8 328.96-2.4 327.46-5.25 325.96-8.1 325.96-11.7L325.96-11.7Q325.96-15.3 327.44-18.15 328.91-21 331.56-22.6 334.21-24.2 337.56-24.2L337.56-24.2Q340.41-24.2 342.54-22.98 344.66-21.75 346.41-19.5L346.41-19.5 343.91-17.55Q341.46-21.1 337.56-21.1L337.56-21.1Q335.21-21.1 333.34-19.9 331.46-18.7 330.41-16.55 329.36-14.4 329.36-11.7L329.36-11.7Q329.36-9 330.41-6.85 331.46-4.7 333.34-3.5 335.21-2.3 337.56-2.3L337.56-2.3Q339.96-2.3 341.51-3.13 343.06-3.95 344.31-5.55L344.31-5.55 346.96-3.7Q345.31-1.65 342.89-0.43 340.46 0.8 337.66 0.8L337.66 0.8ZM362.51-24.2Q364.96-24.2 367.04-23.2 369.11-22.2 370.34-20.25 371.56-18.3 371.56-15.65L371.56-15.65 371.56 0 368.16 0 368.16-14.15Q368.16-21.1 361.96-21.1L361.96-21.1Q358.36-21.1 356.56-18.55 354.76-16 354.76-11.7L354.76-11.7 354.76 0 351.36 0 351.36-36.3 354.76-36.3 354.76-19.5Q355.96-21.75 357.94-22.98 359.91-24.2 362.51-24.2L362.51-24.2Z" opacity="1" transform="matrix(1,0,0,1,0,0)" fill="#50a060" class="wordmark-text-0" data-fill-palette-color="primary" id="text-0"></path></svg></g></svg></g></svg></g></svg></g><g transform="matrix(1,0,0,1,156.58255694691718,0)"><svg viewBox="0 0 84.33248610616558 68.8465180413493" height="68.8465180413493" width="84.33248610616558"><g><svg xmlns:x="http://ns.adobe.com/Extensibility/1.0/" xmlns:i="http://ns.adobe.com/AdobeIllustrator/10.0/" xmlns:graph="http://ns.adobe.com/Graphs/1.0/" xmlns="http://www.w3.org/2000/svg" xmlns:xlink="http://www.w3.org/1999/xlink" version="1.1" x="8" y="0" viewBox="6.1945000000000014 6 51.61175 52" enable-background="new 0 0 64 64" xml:space="preserve" height="68.8465180413493" width="68.33248610616558" class="icon-icon-0" data-fill-palette-color="accent" id="icon-0"><g fill="#50a060" data-fill-palette-color="accent"><g fill="#50a060" data-fill-palette-color="accent"><path d="M33.673 31.408l-6.405-11.09c-0.178-0.31-0.508-0.5-0.866-0.5H13.597c-0.357 0-0.688 0.19-0.866 0.5l-6.403 11.09c-0.178 0.31-0.178 0.69 0 1L12.73 43.5c0.179 0.31 0.509 0.5 0.866 0.5h12.806c0.357 0 0.688-0.19 0.866-0.5l6.404-11.092C33.852 32.099 33.852 31.718 33.673 31.408z" fill="#50a060" data-fill-palette-color="accent"></path><path d="M51.269 34.319c-0.179-0.31-0.509-0.5-0.866-0.5H37.596c-0.357 0-0.688 0.19-0.866 0.5l-6.402 11.09c-0.178 0.31-0.178 0.69 0 1L36.729 57.5c0.179 0.31 0.509 0.5 0.866 0.5h12.807c0.357 0 0.688-0.19 0.866-0.5l6.404-11.091c0.179-0.31 0.179-0.69 0-1L51.269 34.319z" fill="#50a060" data-fill-palette-color="accent"></path><path d="M36.729 29.682c0.179 0.31 0.509 0.5 0.866 0.5h12.807c0.357 0 0.688-0.19 0.866-0.5l6.404-11.092c0.179-0.31 0.179-0.69 0-1L51.269 6.5C51.09 6.19 50.76 6 50.402 6H37.596c-0.357 0-0.688 0.19-0.866 0.5l-6.402 11.09c-0.178 0.31-0.178 0.69 0 1L36.729 29.682z" fill="#50a060" data-fill-palette-color="accent"></path></g></g></svg><g></g></g></svg></g><g><rect width="80.04943694691721" height="4.4925108875365405" y="63.35400715381276" x="240.91504305308274" fill="#c9efc7" data-fill-palette-color="secondary"></rect><rect width="80.04943694691721" height="4.4925108875365405" y="63.35400715381276" x="76.53311999999997" fill="#c9efc7" data-fill-palette-color="secondary"></rect></g></svg></g><defs></defs></svg><rect width="395.52" height="145.9468771967433" fill="none" stroke="none" visibility="hidden"></rect></g></svg></g></svg>